<svg width="1920" height="1080" viewBox="0 0 1920 1080" xmlns="http://www.w3.org/2000/svg"><rect width="1920" height="1080" fill="#37474B"/><path d="M 944.626 77.636 C 922.882 215.167 1036.436 470.347 930.222 595.502 C 824.008 720.656 491.287 826.452 307.344 828.564 C 123.402 830.676 -5.12 735.443 -173.435 608.176 C -341.75 480.909 -665.501 247.442 -702.546 64.962 C -739.592 -117.517 -569.147 -376.759 -395.71 -486.701 C -222.273 -596.643 95.342 -637.525 338.074 -594.69 C 580.806 -551.854 959.592 -341.741 1060.684 -229.687 C 1161.776 -117.633 966.369 -59.895 944.626 77.636 C 922.882 215.167 1036.436 470.347 930.222 595.502" fill="#FFC2C3"/></svg>